<svg width="353.5750244140625px" height="112.80000305175781px" xmlns="http://www.w3.org/2000/svg" viewBox="73.21248779296874 18.599998474121094 353.5750244140625 112.80000305175781" style="background: none;" preserveAspectRatio="xMidYMid"><defs><linearGradient id="editing-glowing-gradient" x1="0.8146601955249186" x2="0.18533980447508142" y1="0.8885729807284856" y2="0.11142701927151444"><stop offset="0" stop-color="#94a9ce"></stop><stop offset="1" stop-color="#667395"></stop></linearGradient><filter id="editing-glowing" x="-100%" y="-100%" width="300%" height="300%"><feGaussianBlur in="SourceGraphic" result="blur" stdDeviation="10"></feGaussianBlur><feMerge><feMergeNode in="blur"></feMergeNode><feMergeNode in="SourceGraphic"></feMergeNode></feMerge></filter></defs><g filter="url(#editing-glowing)"><g transform="translate(136.0046901702881, 92.63499641418457)"><path d="M40.83 0L29.12 0L26.11-11.07L25.73-11.07L23.81 0L13.06 0L18.94-33.86L29.76-33.86L27.90-23.49L28.22-23.49L34.82-33.86L46.53-33.86L35.78-17.28L40.83 0ZM11.46-3.07L10.94-0.19L-16.19-3.07L11.46-3.07ZM13.63-15.42L13.12-12.54L-14.02-15.42L13.63-15.42ZM14.72-21.57L14.21-18.69L-12.93-21.57L14.72-21.57ZM15.81-27.71L15.30-24.83L-11.84-27.71L15.81-27.71ZM16.83-33.86L16.38-30.98L-10.75-33.86L16.83-33.86ZM12.54-9.28L12.03-6.40L-15.10-9.28L12.54-9.28ZM60.10-3.07L59.58-0.19L32.45-3.07L60.10-3.07ZM61.18-9.28L60.67-6.40L33.54-9.28L61.18-9.28ZM57.54-27.71L58.11-24.83L30.98-27.71L57.54-27.71ZM56.26-33.86L56.83-30.98L29.70-33.86L56.26-33.86ZM58.82-21.57L59.39-18.69L32.26-21.57L58.82-21.57ZM60.03-15.42L60.67-12.54L33.54-15.42L60.03-15.42ZM58.18-33.86L69.18-33.86L70.59-21.57L70.98-21.57L76.29-33.86L87.49-33.86L73.92-9.66L72.32 0L61.50 0L63.17-9.66L58.18-33.86ZM93.44-3.07L92.93-0.19L65.79-3.07L93.44-3.07ZM99.71-27.71L99.52-24.83L72.38-27.71L99.71-27.71ZM100.16-33.86L99.97-30.98L72.83-33.86L100.16-33.86ZM67.78-9.28L95.42-9.28L94.27-7.94L94.02-6.46L67.78-9.28ZM78.91-21.57L106.56-21.57L104.19-18.88L78.91-21.57ZM98.62-12.74L73.41-15.42L101.06-15.42L98.62-12.74ZM124.29-9.15L122.75 0L94.91 0L96.13-7.10L111.49-24.13L111.36-24.51L101.44-24.51L102.08-33.86L128.45-33.86L127.17-26.75L111.74-9.54L111.87-9.15L124.29-9.15ZM117.70-9.28L132.48-9.28L132.48-9.28Q132.10-8 131.90-6.40L131.90-6.40L117.70-9.28ZM132.35-0.19L132.35-0.19L118.02-3.07L131.65-3.07L131.65-3.07Q131.78-1.22 132.35-0.19ZM133.82-6.34L133.82-6.34Q134.46-10.11 136.10-11.65L136.10-11.65L136.10-11.65Q137.73-13.18 141.28-13.18L141.28-13.18L141.28-13.18Q144.83-13.18 146.08-12.22L146.08-12.22L146.08-12.22Q147.33-11.26 147.33-9.47L147.33-9.47L147.33-9.47Q147.33-7.68 147.07-6.34L147.07-6.34L147.07-6.34Q146.43-2.56 144.80-1.09L144.80-1.09L144.80-1.09Q143.17 0.38 139.62 0.38L139.62 0.38L139.62 0.38Q136.06 0.38 134.82-0.54L134.82-0.54L134.82-0.54Q133.57-1.47 133.57-3.23L133.57-3.23L133.57-3.23Q133.57-4.99 133.82-6.34L133.82-6.34ZM161.60-9.15L166.14-9.15L166.14-9.15Q168.32-9.15 168.51-10.43L168.51-10.43L170.88-24.26L166.72-24.26L168.45-33.86L183.36-33.86L179.01-9.02L179.01-9.02Q177.34 0 169.22 0L169.22 0L159.94 0L161.60-9.15ZM158.46-3.07L157.95-0.19L130.82-3.07L158.46-3.07ZM167.42-15.42L166.91-12.54L139.78-15.42L167.42-15.42ZM168.51-21.57L168.00-18.69L140.86-21.57L168.51-21.57ZM165.31-27.71L164.80-24.83L137.66-27.71L165.31-27.71ZM166.40-33.86L165.95-30.98L138.82-33.86L166.40-33.86ZM159.62-9.28L159.10-6.40L131.97-9.28L159.62-9.28ZM194.37-0.19L167.62-3.07L195.26-3.07L194.37-0.19ZM172.54-27.71L200.13-27.71L200.13-27.71Q199.74-26.69 199.30-24.83L199.30-24.83L172.54-27.71ZM198.53-19.20L198.53-19.20L198.53-18.69L171.39-21.57L198.66-21.57L198.66-21.57Q198.53-20.03 198.53-19.20ZM197.31-9.28L196.42-6.46L169.73-9.28L197.31-9.28ZM176.96-33.86L204.54-33.86L204.54-33.86Q202.82-32.58 201.92-31.17L201.92-31.17L176.96-33.86ZM173.89-15.42L199.10-15.42L199.10-15.42Q199.68-13.76 200.96-12.54L200.96-12.54L173.89-15.42ZM227.71-33.15L224.64-23.81L224.64-23.81Q220.29-24.83 217.22-24.83L217.22-24.83L217.22-24.83Q214.14-24.83 212.67-24.64L212.67-24.64L212.35-22.78L215.55-22.40L215.55-22.40Q225.86-21.06 225.86-13.89L225.86-13.89L225.86-13.89Q225.86-13.06 225.47-10.78L225.47-10.78L225.47-10.78Q225.09-8.51 224.19-6.40L224.19-6.40L224.19-6.40Q223.30-4.29 221.92-2.98L221.92-2.98L221.92-2.98Q220.54-1.66 219.23-0.86L219.23-0.86L219.23-0.86Q217.92-0.06 215.87 0.26L215.87 0.26L215.87 0.26Q212.67 0.77 207.33 0.77L207.33 0.77L207.33 0.77Q201.98 0.77 196.54-0.70L196.54-0.70L199.68-10.18L199.68-10.18Q204.67-8.77 208.42-8.77L208.42-8.77L208.42-8.77Q212.16-8.77 213.70-8.96L213.70-8.96L214.02-11.01L209.98-11.46L209.98-11.46Q204.80-12.03 202.62-13.89L202.62-13.89L202.62-13.89Q200.45-15.74 200.45-19.20L200.45-19.20L200.45-19.20Q200.45-20.48 200.77-22.40L200.77-22.40L200.77-22.40Q202.05-29.25 205.38-31.87L205.38-31.87L205.38-31.87Q208.70-34.50 215.52-34.50L215.52-34.50L215.52-34.50Q222.34-34.50 227.71-33.15L227.71-33.15Z" fill="url(#editing-glowing-gradient)"></path></g></g><style>text {
  font-size: 64px;
  font-family: Arial Black;
  dominant-baseline: central;
  text-anchor: middle;
}</style></svg>